:FULLY-SPECIFIED
:FORCE-ALL-JOINTS-BE-3DOF
:DEGREES
510
root -4.8392 15.0344 -42.2191 366.145 -2.3374 345.846
lfemur -59.2791 37.4062 -18.4738
ltibia 73.0553 0 0
lfoot -24.0181 32.2249 0
ltoes 13.1315 0 0
rfemur -13.1476 -14.316 5.11456
rtibia 52.0951 0 0
rfoot 8.54956 -18.1204 0
rtoes 9.49217 0 0
lowerback 15.2771 1.02049 -4.78809
upperback -1.47941 0.8409 3.96832
thorax -10.3971 0.817957 6.88079
lowerneck 4.23813 -15.1279 -17.5004
upperneck 3.97199 -22.0475 20.7687
head 4.88939 -11.1857 7.82675
lclavicle -3.47738e-014 -7.1003e-015 0
lhumerus 12.995 -64.1535 80.1373
lradius 82.0731 0 0
lwrist 30.0518 0 0
lhand -4.90256 37.673 0
lfingers 7.12502 0 0
lthumb 20.8741 66.3891 0
rclavicle -3.47738e-014 -7.1003e-015 0
rhumerus 66.8197 31.7672 -20.0687
rradius 110.411 0 0
rwrist -28.0662 0 0
rhand 5.56383 -14.9178 0
rfingers 7.12502 0 0
rthumb 30.8986 -42.277 0
511
root -4.90249 15.0224 -42.2442 366.175 -5.45697 346.002
lfemur -57.0479 36.2953 -16.8467
ltibia 72.7482 0 0
lfoot -23.5059 31.1415 0
ltoes 11.1196 0 0
rfemur -14.2904 -14.9733 4.89605
rtibia 52.1594 0 0
rfoot 7.80988 -16.847 0
rtoes 8.34392 0 0
lowerback 15.4659 1.10158 -4.98081
upperback -1.4156 0.885836 3.85038
thorax -10.4439 0.844986 6.84933
lowerneck 3.79356 -14.8848 -17.5184
upperneck 4.56276 -21.6722 20.3328
head 5.02514 -10.9836 7.70458
lclavicle -3.22516e-014 -7.18985e-015 0
lhumerus 8.92491 -61.4824 82.125
lradius 83.2752 0 0
lwrist 32.1428 0 0
lhand -5.97056 38.3442 0
lfingers 7.12502 0 0
lthumb 19.8455 67.1351 0
rclavicle -3.22516e-014 -7.18985e-015 0
rhumerus 62.3217 31.7701 -22.23
rradius 111.368 0 0
rwrist -28.7778 0 0
rhand 6.52252 -15.0152 0
rfingers 7.12502 0 0
rthumb 31.8116 -42.1998 0
512
root -4.96578 15.0103 -42.2693 366.185 -8.64511 346.191
lfemur -54.6163 35.0612 -15.1405
ltibia 72.4196 0 0
lfoot -22.9887 29.9911 0
ltoes 8.96147 0 0
rfemur -15.61 -15.6238 4.71041
rtibia 52.3299 0 0
rfoot 6.96508 -15.5048 0
rtoes 7.11009 0 0
lowerback 15.6761 1.18101 -5.1917
upperback -1.34221 0.923012 3.72366
thorax -10.4907 0.868668 6.82074
lowerneck 3.32726 -14.6278 -17.5334
upperneck 5.1748 -21.2732 19.8677
head 5.16302 -10.7694 7.57464
lclavicle -2.92995e-014 -7.34766e-015 0
lhumerus 4.52658 -58.6183 84.2864
lradius 84.5678 0 0
lwrist 34.3487 0 0
lhand -7.11446 39.0626 0
lfingers 7.12502 0 0
lthumb 18.7438 67.9342 0
rclavicle -2.92995e-014 -7.34766e-015 0
rhumerus 57.5138 31.7664 -24.5475
rradius 112.395 0 0
rwrist -29.5363 0 0
rhand 7.54667 -15.1425 0
rfingers 7.12502 0 0
rthumb 32.7869 -42.1406 0
513
root -5.02907 14.9983 -42.2945 366.168 -11.8837 346.42
lfemur -52.0155 33.7251 -13.3774
ltibia 72.0689 0 0
lfoot -22.4708 28.7912 0
ltoes 6.68675 0 0
rfemur -17.0828 -16.2645 4.55571
rtibia 52.5953 0 0
rfoot 6.0324 -14.107 0
rtoes 5.81218 0 0
lowerback 15.9028 1.25866 -5.41704
upperback -1.26093 0.95348 3.58976
thorax -10.5369 0.889392 6.79436
lowerneck 2.84478 -14.3592 -17.5442
upperneck 5.80044 -20.8546 19.378
head 5.30108 -10.545 7.43806
lclavicle -2.59856e-014 -7.56586e-015 0
lhumerus -0.13932 -55.6008 86.5865
lradius 85.9329 0 0
lwrist 36.6438 0 0
lhand -8.31649 39.817 0
lfingers 7.12502 0 0
lthumb 17.5861 68.7742 0
rclavicle -2.59856e-014 -7.56586e-015 0
rhumerus 52.4656 31.753 -26.9879
rradius 113.458 0 0
rwrist -30.3193 0 0
rhand 8.61237 -15.2966 0
rfingers 7.12502 0 0
rthumb 33.8017 -42.0994 0
